HIERARCHY
ROOT Hips
{
	OFFSET 0.000000 83.214638 0.000000
	CHANNELS 6 Xposition Yposition Zposition Xrotation Yrotation Zrotation
	JOINT Pelvis
	{
		OFFSET 0.000000 0.000000 0.000000
		CHANNELS 3 Xrotation Yrotation Zrotation
		JOINT LeftUpLeg
		{
			OFFSET 8.479700 -4.795502 -0.379100
			CHANNELS 3 Xrotation Yrotation Zrotation
			JOINT LeftLeg
			{
				OFFSET 0.024144 -32.555107 0.112900
				CHANNELS 3 Xrotation Yrotation Zrotation
				JOINT LeftFoot
				{
					OFFSET -0.024144 -32.638630 -3.012600
					CHANNELS 3 Xrotation Yrotation Zrotation
					JOINT LeftToeBase
					{
						OFFSET 0.970200 -13.225400 11.864200
						CHANNELS 3 Xrotation Yrotation Zrotation
						End Site
						{
							OFFSET 0.000000 12.319262 0.000000
						}
					}
					JOINT LFootTongue
					{
						OFFSET 1.142400 -1.059800 6.665200
						CHANNELS 3 Xrotation Yrotation Zrotation
						End Site
						{
							OFFSET 0.000000 12.319262 0.000000
						}
					}
				}
				JOINT LeftPantLeg
				{
					OFFSET 0.918482 -16.533964 -2.284700
					CHANNELS 3 Xrotation Yrotation Zrotation
					End Site
					{
						OFFSET 0.350399 24.744368 0.000000
					}
				}
			}
		}
		JOINT RightUpLeg
		{
			OFFSET -8.479700 -4.795502 -0.379100
			CHANNELS 3 Xrotation Yrotation Zrotation
			JOINT RightLeg
			{
				OFFSET -0.023144 -32.555092 0.112900
				CHANNELS 3 Xrotation Yrotation Zrotation
				JOINT RightFoot
				{
					OFFSET 0.023144 -32.638641 -3.012700
					CHANNELS 3 Xrotation Yrotation Zrotation
					JOINT RightToeBase
					{
						OFFSET -0.970200 -13.225400 11.864200
						CHANNELS 3 Xrotation Yrotation Zrotation
						End Site
						{
							OFFSET 0.000000 12.319244 0.000000
						}
					}
					JOINT RFootTongue
					{
						OFFSET -1.142200 -1.059800 6.665200
						CHANNELS 3 Xrotation Yrotation Zrotation
						End Site
						{
							OFFSET 0.000000 12.319243 0.000000
						}
					}
				}
				JOINT RightPantLeg
				{
					OFFSET -0.919482 -16.533978 -2.284800
					CHANNELS 3 Xrotation Yrotation Zrotation
					End Site
					{
						OFFSET -0.350400 24.744419 0.000000
					}
				}
			}
		}
	}
	JOINT Spine
	{
		OFFSET 0.000000 7.722000 1.166200
		CHANNELS 3 Xrotation Yrotation Zrotation
		JOINT Spine1
		{
			OFFSET 0.000000 12.024101 0.248800
			CHANNELS 3 Xrotation Yrotation Zrotation
			JOINT Spine2
			{
				OFFSET 0.000000 11.502998 -0.491200
				CHANNELS 3 Xrotation Yrotation Zrotation
				JOINT Neck
				{
					OFFSET 0.000000 18.430702 -3.123100
					CHANNELS 3 Xrotation Yrotation Zrotation
					JOINT Head
					{
						OFFSET 0.000000 9.051102 1.034000
						CHANNELS 3 Xrotation Yrotation Zrotation
						JOINT HairB
						{
							OFFSET 0.208400 24.786102 24.822300
							CHANNELS 3 Xrotation Yrotation Zrotation
							End Site
							{
								OFFSET 0.000000 32.263779 0.000000
							}
						}
						JOINT HairA
						{
							OFFSET -7.081100 24.428299 23.196600
							CHANNELS 3 Xrotation Yrotation Zrotation
							End Site
							{
								OFFSET 0.000000 32.263779 0.000000
							}
						}
						JOINT Hat
						{
							OFFSET 16.728800 15.048294 -15.439601
							CHANNELS 3 Xrotation Yrotation Zrotation
							End Site
							{
								OFFSET 0.000000 32.263779 0.000000
							}
						}
					}
				}
				JOINT LeftShoulder
				{
					OFFSET 6.197800 13.665199 -4.064700
					CHANNELS 3 Xrotation Yrotation Zrotation
					JOINT LeftArm
					{
						OFFSET 7.778100 -0.187103 -1.709300
						CHANNELS 3 Xrotation Yrotation Zrotation
						JOINT LeftForeArm
						{
							OFFSET 22.049376 0.000000 0.000000
							CHANNELS 3 Xrotation Yrotation Zrotation
							JOINT LeftHand
							{
								OFFSET 23.009392 0.000000 0.000000
								CHANNELS 3 Xrotation Yrotation Zrotation
								JOINT LeftHandThumb1
								{
									OFFSET 3.507191 -2.063065 3.133727
									CHANNELS 3 Xrotation Yrotation Zrotation
									JOINT LeftHandThumb2
									{
										OFFSET 3.101337 -1.790558 1.790558
										CHANNELS 3 Xrotation Yrotation Zrotation
										JOINT LeftHandThumb3
										{
											OFFSET 3.058640 -1.765907 1.765906
											CHANNELS 3 Xrotation Yrotation Zrotation
											End Site
											{
												OFFSET -0.415260 3.926476 -0.049563
											}
										}
									}
								}
								JOINT LeftHandIndex1
								{
									OFFSET 11.334419 -0.901459 3.706815
									CHANNELS 3 Xrotation Yrotation Zrotation
									JOINT LeftHandIndex2
									{
										OFFSET 3.283112 0.000000 0.000000
										CHANNELS 3 Xrotation Yrotation Zrotation
										JOINT LeftHandIndex3
										{
											OFFSET 3.323853 0.000000 0.000000
											CHANNELS 3 Xrotation Yrotation Zrotation
											End Site
											{
												OFFSET -1.135597 3.097809 0.402452
											}
										}
									}
								}
								JOINT LeftHandMiddle1
								{
									OFFSET 11.335861 0.000000 0.000000
									CHANNELS 3 Xrotation Yrotation Zrotation
									JOINT LeftHandMiddle2
									{
										OFFSET 3.410492 0.000000 0.000000
										CHANNELS 3 Xrotation Yrotation Zrotation
										JOINT LeftHandMiddle3
										{
											OFFSET 3.312172 0.000000 0.000000
											CHANNELS 3 Xrotation Yrotation Zrotation
											End Site
											{
												OFFSET -1.150200 3.080154 0.400270
											}
										}
									}
								}
								JOINT LeftHandRing1
								{
									OFFSET 11.514786 -0.013176 -3.003090
									CHANNELS 3 Xrotation Yrotation Zrotation
									JOINT LeftHandRing2
									{
										OFFSET 3.053307 0.000000 0.000000
										CHANNELS 3 Xrotation Yrotation Zrotation
										JOINT LeftHandRing3
										{
											OFFSET 3.295807 0.000000 0.000000
											CHANNELS 3 Xrotation Yrotation Zrotation
											End Site
											{
												OFFSET -1.281006 3.013344 0.375733
											}
										}
									}
								}
								JOINT LeftHandPinky1
								{
									OFFSET 10.518692 -0.960396 -5.730441
									CHANNELS 3 Xrotation Yrotation Zrotation
									JOINT LeftHandPinky2
									{
										OFFSET 2.861649 0.000000 0.000000
										CHANNELS 3 Xrotation Yrotation Zrotation
										JOINT LeftHandPinky3
										{
											OFFSET 2.863380 0.000000 0.000000
											CHANNELS 3 Xrotation Yrotation Zrotation
											End Site
											{
												OFFSET -0.843597 2.711159 0.369971
											}
										}
									}
								}
							}
							JOINT LSleeve
							{
								OFFSET 6.676277 -0.344902 -1.011730
								CHANNELS 3 Xrotation Yrotation Zrotation
								End Site
								{
									OFFSET 0.000000 14.885353 0.000000
								}
							}
						}
					}
				}
				JOINT RightShoulder
				{
					OFFSET -6.197800 13.665199 -4.064700
					CHANNELS 3 Xrotation Yrotation Zrotation
					JOINT RightArm
					{
						OFFSET -7.778100 -0.187103 -1.709300
						CHANNELS 3 Xrotation Yrotation Zrotation
						JOINT RightForeArm
						{
							OFFSET -22.049376 0.000000 0.000000
							CHANNELS 3 Xrotation Yrotation Zrotation
							JOINT RightHand
							{
								OFFSET -23.009392 0.000000 0.000000
								CHANNELS 3 Xrotation Yrotation Zrotation
								JOINT RightHandThumb1
								{
									OFFSET -3.507191 -2.063065 3.133727
									CHANNELS 3 Xrotation Yrotation Zrotation
									JOINT RightHandThumb2
									{
										OFFSET -3.101337 -1.790558 1.790558
										CHANNELS 3 Xrotation Yrotation Zrotation
										JOINT RightHandThumb3
										{
											OFFSET -3.058640 -1.765907 1.765906
											CHANNELS 3 Xrotation Yrotation Zrotation
											End Site
											{
												OFFSET 0.415260 3.926476 -0.049563
											}
										}
									}
								}
								JOINT RightHandIndex1
								{
									OFFSET -11.334419 -0.901459 3.706815
									CHANNELS 3 Xrotation Yrotation Zrotation
									JOINT RightHandIndex2
									{
										OFFSET -3.283112 0.000000 0.000000
										CHANNELS 3 Xrotation Yrotation Zrotation
										JOINT RightHandIndex3
										{
											OFFSET -3.323853 0.000000 0.000000
											CHANNELS 3 Xrotation Yrotation Zrotation
											End Site
											{
												OFFSET 1.135597 3.097809 0.402452
											}
										}
									}
								}
								JOINT RightHandMiddle1
								{
									OFFSET -11.335861 0.000000 0.000000
									CHANNELS 3 Xrotation Yrotation Zrotation
									JOINT RightHandMiddle2
									{
										OFFSET -3.410492 0.000000 0.000000
										CHANNELS 3 Xrotation Yrotation Zrotation
										JOINT RightHandMiddle3
										{
											OFFSET -3.312172 0.000000 0.000000
											CHANNELS 3 Xrotation Yrotation Zrotation
											End Site
											{
												OFFSET 1.150200 3.080154 0.400270
											}
										}
									}
								}
								JOINT RightHandRing1
								{
									OFFSET -11.514786 -0.013176 -3.003090
									CHANNELS 3 Xrotation Yrotation Zrotation
									JOINT RightHandRing2
									{
										OFFSET -3.053307 0.000000 0.000000
										CHANNELS 3 Xrotation Yrotation Zrotation
										JOINT RightHandRing3
										{
											OFFSET -3.295807 0.000000 0.000000
											CHANNELS 3 Xrotation Yrotation Zrotation
											End Site
											{
												OFFSET 1.281006 3.013344 0.375733
											}
										}
									}
								}
								JOINT RightHandPinky1
								{
									OFFSET -10.518692 -0.960396 -5.730441
									CHANNELS 3 Xrotation Yrotation Zrotation
									JOINT RightHandPinky2
									{
										OFFSET -2.861649 0.000000 0.000000
										CHANNELS 3 Xrotation Yrotation Zrotation
										JOINT RightHandPinky3
										{
											OFFSET -2.863380 0.000000 0.000000
											CHANNELS 3 Xrotation Yrotation Zrotation
											End Site
											{
												OFFSET 0.843597 2.711159 0.369971
											}
										}
									}
								}
							}
							JOINT RSleeve
							{
								OFFSET -6.676277 -0.344902 -1.011730
								CHANNELS 3 Xrotation Yrotation Zrotation
								End Site
								{
									OFFSET 0.000000 14.885353 0.000000
								}
							}
						}
					}
				}
				JOINT Backpack
				{
					OFFSET 0.000000 -2.471497 36.677502
					CHANNELS 3 Xrotation Yrotation Zrotation
					End Site
					{
						OFFSET 0.000000 20.427315 0.000000
					}
				}
				JOINT Hood
				{
					OFFSET 0.000000 18.754097 -10.431000
					CHANNELS 3 Xrotation Yrotation Zrotation
					JOINT Hood1
					{
						OFFSET 0.000000 -5.011002 -7.685901
						CHANNELS 3 Xrotation Yrotation Zrotation
						End Site
						{
							OFFSET 0.000000 9.175140 0.000000
						}
					}
				}
				JOINT LHoodieString
				{
					OFFSET 5.250500 16.397697 3.089900
					CHANNELS 3 Xrotation Yrotation Zrotation
					JOINT LHoodieString1
					{
						OFFSET 0.257700 -6.364304 3.694600
						CHANNELS 3 Xrotation Yrotation Zrotation
						JOINT LHoodieString2
						{
							OFFSET 0.000000 -9.643799 2.679100
							CHANNELS 3 Xrotation Yrotation Zrotation
							End Site
							{
								OFFSET 0.000000 10.009018 0.000000
							}
						}
					}
				}
				JOINT RHoodieString
				{
					OFFSET -5.250500 16.397697 3.089900
					CHANNELS 3 Xrotation Yrotation Zrotation
					JOINT RHoodieString1
					{
						OFFSET -0.257700 -6.364304 3.694600
						CHANNELS 3 Xrotation Yrotation Zrotation
						JOINT RHoodieString2
						{
							OFFSET 0.000000 -9.643799 2.679100
							CHANNELS 3 Xrotation Yrotation Zrotation
							End Site
							{
								OFFSET 0.000000 10.009018 0.000000
							}
						}
					}
				}
			}
			JOINT LBackpack_Strap
			{
				OFFSET 15.223200 -7.719803 -6.610900
				CHANNELS 3 Xrotation Yrotation Zrotation
				End Site
				{
					OFFSET 0.000000 16.040596 0.000000
				}
			}
			JOINT RBackpack_Strap
			{
				OFFSET -15.223000 -7.719803 -6.610900
				CHANNELS 3 Xrotation Yrotation Zrotation
				End Site
				{
					OFFSET 0.000000 16.040596 0.000000
				}
			}
		}
	}
	JOINT BoyFacialAnim_Joint
	{
		OFFSET 1.000000 -82.208099 -1.550900
		CHANNELS 3 Xrotation Yrotation Zrotation
		End Site
		{
			OFFSET 0.000000 30.012791 0.000000
		}
	}
}
MOTION
Frames: 4
Frame Time: 0.016667
0.460254 81.901711 -0.765661 2.912559 -28.989358 1.159703 0.000000 -0.000001 0.000000 -17.357690 18.233456 10.849018 16.411339 13.218796 -0.947355 -1.368229 -4.092738 -5.000170 0.000000 -0.000000 -0.000000 0.000000 -0.000000 -0.000000 0.000000 0.000000 -0.000001 -8.103634 -1.525981 -9.109784 10.357559 9.489573 0.825157 -5.500852 -0.869742 7.456794 0.000000 -0.000000 -0.000000 0.000000 -0.000000 -0.000000 -0.000000 0.000002 0.000000 7.836165 -0.359806 -2.651726 1.099246 -0.880570 2.383464 1.108682 -0.590427 2.446362 -3.841824 18.019028 -6.496413 -6.332733 13.021620 0.301451 -0.000000 0.000000 -0.000000 -0.000000 0.000000 -0.000000 -0.000000 0.000000 -0.000000 -0.057075 -8.759464 -0.061260 -55.250766 0.329479 -41.449372 11.584382 -65.827341 13.005502 -50.189111 12.353138 4.610165 17.551629 -5.699216 -12.932288 10.850503 26.127750 8.644833 0.000001 -0.000000 -0.000001 13.980901 1.201525 -55.004367 0.370816 1.161752 -65.441907 -0.000001 -0.000000 0.000002 7.504744 1.174484 -63.778490 1.807816 1.475699 -64.567978 0.000003 0.000000 0.000000 8.574346 2.179077 -75.148979 -0.207667 1.009261 -57.855063 -0.000004 -0.000001 -0.000001 10.030099 13.637034 -84.750230 0.877113 0.062300 -64.595490 0.000002 0.000000 -0.000002 0.000001 -0.000000 0.000001 4.849290 7.760142 5.560469 -0.933499 -2.176888 61.845649 11.299295 18.943451 -3.987613 -0.459240 6.620143 5.830164 15.788529 -2.734475 -17.205892 -2.198292 -31.113564 7.361302 -0.000000 -0.000002 0.000002 2.372301 -3.659076 8.487474 -2.147368 -2.473147 18.673290 -0.000000 0.000000 0.000004 -1.976258 -5.707889 13.662380 0.283055 -5.105406 26.988092 -0.000001 0.000000 -0.000000 -3.263065 -8.563310 11.768983 4.036047 -4.063318 33.263158 -0.000002 -0.000001 0.000004 -6.474131 -11.347964 23.260716 10.719418 -2.558793 34.822927 -0.000001 0.000000 -0.000003 -0.000000 -0.000000 -0.000000 0.000002 -0.000003 0.000000 0.000002 -0.000003 0.000000 0.000002 -0.000003 0.000000 0.000002 -0.000003 0.000000 0.000002 -0.000003 -0.000000 0.000000 0.000001 -0.000000 0.000002 -0.000003 0.000000 0.000002 -0.000003 -0.000000 0.000000 0.000001 -0.000000 0.000002 0.000001 -0.000000 0.000002 0.000001 -0.000000 0.000000 -0.000001 0.000000 
0.512984 81.887405 -0.793094 2.891352 -29.078523 1.165057 -0.000000 0.000001 -0.000000 -17.421781 18.232901 10.833408 16.553952 13.237169 -0.947480 -1.424521 -4.032627 -4.980009 0.000000 0.000000 0.000000 0.000000 0.000000 -0.000000 -0.000000 -0.000000 -0.000000 -8.232445 -1.488992 -9.157718 10.524302 9.482373 0.824575 -5.531065 -0.782370 7.487598 0.000000 -0.000000 0.000000 0.000000 -0.000000 0.000000 -0.000002 0.000002 -0.000000 7.936607 -0.338743 -2.595823 1.080460 -0.850003 2.358318 1.088653 -0.565139 2.416398 -3.855336 18.005321 -6.571707 -6.317580 12.968642 0.353974 0.000000 0.000000 0.000000 0.000000 0.000000 0.000000 0.000000 0.000000 0.000000 -0.057072 -8.759436 -0.061266 -55.271424 0.413093 -41.445222 11.503868 -65.871096 12.918218 -50.190334 12.364712 4.610386 17.551624 -5.699218 -12.932285 10.850504 26.127743 8.644831 0.000002 0.000000 -0.000001 13.980900 1.201524 -55.004364 0.370817 1.161751 -65.441907 -0.000000 -0.000001 -0.000002 7.504744 1.174482 -63.778483 1.807816 1.475698 -64.567978 0.000001 0.000001 0.000002 8.574346 2.179077 -75.148979 -0.207669 1.009258 -57.855056 -0.000001 0.000001 0.000001 10.030097 13.637028 -84.750230 0.877111 0.062300 -64.595490 -0.000000 0.000000 -0.000000 -0.000000 -0.000001 0.000001 4.865850 7.713964 5.066076 -1.727490 -3.842177 62.180792 11.300532 19.067262 -3.968912 -0.401668 6.552089 5.647304 15.848960 -2.695779 -17.150600 -2.384693 -31.097510 7.210790 0.000001 0.000001 0.000001 2.412224 -3.560310 9.282996 -2.102627 -2.491905 20.475854 0.000000 0.000000 0.000002 -1.994716 -5.660133 14.224529 0.416707 -5.085384 28.451558 -0.000001 0.000000 -0.000000 -3.395378 -8.569173 12.124394 4.157462 -3.928415 34.228451 -0.000001 0.000001 0.000000 -6.836870 -11.346086 23.402373 10.672936 -2.539596 35.822361 0.000000 -0.000000 -0.000003 0.000001 0.000001 -0.000001 0.000000 -0.000000 0.000000 0.000000 -0.000000 0.000000 0.000000 -0.000000 0.000000 0.000000 -0.000000 0.000000 0.000000 -0.000000 -0.000000 -0.000001 0.000001 -0.000000 0.000000 -0.000000 0.000000 0.000000 -0.000000 -0.000000 -0.000001 0.000001 -0.000000 0.000001 -0.000002 -0.000000 0.000001 -0.000002 -0.000000 -0.000000 0.000001 -0.000000 
0.574104 81.865036 -0.824730 2.891643 -29.195220 1.197348 -0.000000 -0.000001 -0.000000 -17.529556 18.232794 10.805772 16.752154 13.181354 -0.952002 -1.506323 -3.869982 -4.952499 0.000000 0.000000 -0.000000 0.000000 0.000000 -0.000000 -0.000000 -0.000000 -0.000000 -8.452303 -1.416429 -9.228434 10.812756 9.316356 0.810904 -5.606828 -0.529261 7.547124 0.000000 0.000001 -0.000000 0.000000 0.000001 -0.000000 -0.000001 0.000002 0.000000 8.054817 -0.317797 -2.540666 1.045027 -0.814358 2.320276 1.051742 -0.537257 2.372766 -3.859432 18.003598 -6.653441 -6.291790 12.928290 0.401019 -0.000000 0.000000 -0.000000 -0.000000 0.000000 -0.000000 -0.000000 0.000000 -0.000000 -0.056871 -8.756178 -0.061015 -55.279098 0.492945 -41.432194 11.415644 -65.915779 12.820472 -50.192540 12.364374 4.627880 17.551629 -5.699222 -12.932293 10.850503 26.127750 8.644830 0.000000 -0.000001 0.000000 13.980903 1.201520 -55.004367 0.370812 1.161754 -65.441900 0.000000 -0.000001 -0.000004 7.504743 1.174483 -63.778496 1.807814 1.475700 -64.567971 -0.000001 0.000000 -0.000002 8.574346 2.179076 -75.148986 -0.207666 1.009259 -57.855056 -0.000001 0.000001 -0.000002 10.030099 13.637033 -84.750237 0.877113 0.062300 -64.595490 0.000001 0.000000 0.000005 0.000003 0.000000 0.000001 4.899518 7.770212 4.883301 -2.486740 -5.619536 62.291756 11.240945 19.305412 -3.821051 -0.295080 6.502941 5.287232 15.913514 -2.655483 -17.091830 -2.582625 -31.081264 7.049772 0.000001 -0.000002 0.000001 2.451975 -3.455405 10.124584 -2.056493 -2.510907 22.383097 -0.000001 -0.000000 0.000003 -2.015466 -5.610611 14.819371 0.556764 -5.060602 29.999878 -0.000002 0.000000 -0.000000 -3.535394 -8.575346 12.500587 4.281577 -3.782347 35.249220 -0.000002 -0.000000 0.000000 -7.220720 -11.346662 23.553279 10.626898 -2.521971 36.881860 -0.000001 -0.000000 0.000004 -0.000000 -0.000000 -0.000002 0.000002 -0.000001 0.000000 0.000002 -0.000001 0.000000 0.000002 -0.000001 0.000000 0.000002 -0.000001 0.000000 0.000002 -0.000001 -0.000000 0.000000 0.000001 -0.000001 0.000002 -0.000001 0.000000 0.000002 -0.000001 -0.000000 0.000000 0.000001 -0.000001 0.000000 0.000000 -0.000000 0.000000 0.000000 -0.000000 -0.000000 -0.000001 -0.000000 
0.650426 81.830734 -0.861120 2.912141 -29.359114 1.264963 -0.000000 -0.000000 0.000000 -17.688670 18.238099 10.753388 17.030908 13.098033 -0.945596 -1.627580 -3.629475 -4.928338 0.000000 -0.000000 -0.000000 0.000000 -0.000000 -0.000000 0.000000 -0.000000 -0.000000 -8.790226 -1.307198 -9.337209 11.260595 9.039610 0.788150 -5.743682 -0.132749 7.632582 -0.000000 -0.000001 0.000000 -0.000000 -0.000001 0.000000 -0.000001 0.000004 0.000001 8.215188 -0.292905 -2.474234 0.982374 -0.769362 2.257493 0.987261 -0.504671 2.302933 -3.858818 18.023145 -6.759837 -6.253559 12.897460 0.461517 -0.000000 0.000000 -0.000000 -0.000000 0.000000 -0.000000 -0.000000 0.000000 -0.000000 -0.053858 -8.693456 -0.060970 -55.250411 0.554221 -41.417499 11.247232 -65.966309 12.636379 -50.201474 12.368752 4.700095 17.551629 -5.699220 -12.932287 10.850503 26.127745 8.644834 -0.000000 0.000000 -0.000000 13.980900 1.201523 -55.004357 0.370812 1.161751 -65.441900 -0.000002 0.000000 -0.000002 7.504744 1.174484 -63.778490 1.807815 1.475699 -64.567971 0.000002 0.000001 -0.000001 8.574346 2.179076 -75.148979 -0.207666 1.009259 -57.855063 -0.000001 -0.000001 0.000001 10.030099 13.637033 -84.750230 0.877113 0.062299 -64.595490 0.000001 0.000001 0.000005 0.000003 0.000001 0.000000 4.923726 7.918126 4.671081 -3.132922 -7.632035 62.463801 11.059126 19.707836 -3.492764 -0.105824 6.503905 4.622652 15.981663 -2.613715 -17.029900 -2.790780 -31.064680 6.879386 -0.000000 -0.000001 -0.000002 2.490960 -3.344925 11.007144 -2.009445 -2.530186 24.383608 -0.000000 -0.000000 0.000002 -2.038544 -5.559739 15.443203 0.702051 -5.030699 31.623803 0.000000 0.000000 -0.000002 -3.682325 -8.586004 12.895173 4.407007 -3.625690 36.319131 -0.000001 -0.000001 0.000000 -7.623287 -11.350000 23.712689 10.582184 -2.506291 37.994993 0.000001 -0.000001 -0.000003 0.000000 -0.000000 0.000001 0.000001 0.000001 -0.000000 0.000001 0.000001 -0.000000 0.000001 0.000001 -0.000000 0.000001 0.000001 -0.000000 0.000001 0.000001 -0.000000 0.000000 0.000001 -0.000001 0.000001 0.000001 -0.000000 0.000001 0.000001 -0.000000 0.000000 0.000001 -0.000001 0.000000 0.000002 -0.000000 0.000000 0.000002 -0.000000 -0.000000 -0.000000 0.000000 
